<svg xmlns="http://www.w3.org/2000/svg" xml:space="preserve" width="2000" height="1500" data-id="lg_blgmnK4kPX6eMigHqs" data-version="1" viewBox="0 0 2000 1500"><path fill="#111" stroke="transparent" d="M0 0h2000v1500H0z"/><g data-padding="20"><g transform="translate(-1651.786 -1252.376)scale(2.5829)"><rect width="560" height="136.73" x="346.167" y="306.526" fill="none" rx="0" ry="0" transform="translate(400.5 400.35)"/><path fill="#fff" d="M802.997 722.38v71.51q0 9.8-6.53 14.64-3.15 2.3-6.48 3.57-3.32 1.27-6.47 1.27h-11.62q-3.14 0-6.47-1.27t-6.47-3.57q-6.42-4.72-6.42-14.64v-7.98q0-5.69 7.02-5.69 7.26 0 7.26 5.69v7.01q0 3.15 1.82 5.69 1.81 2.54 6.29 2.54h5.57q4.47 0 6.29-2.54 1.81-2.54 1.81-5.69v-70.54q0-5.81 7.14-5.81 7.26 0 7.26 5.81m77.93 87.97-26.62-81.31-26.5 81.31v-.12q-.73 1.81-2 2.96t-3.09 1.15q-.96 0-1.87-.18t-1.88-.42h.12q-6.89-2.18-5.08-7.75l27.59-83.85q.61-1.94 2.12-3.27t3.57-1.57q2.05-.36 3.99-.55 1.94-.18 3.03-.18 1.08 0 3.02.18 1.94.19 3.99.43 1.7.24 3.33 1.81 1.63 1.58 2.48 3.15 6.78 20.81 13.74 41.92 6.95 21.12 13.73 41.93 1.69 5.57-5.08 7.75-.97.24-1.76.42-.78.18-1.75.18-1.7 0-3.09-1.15t-1.99-2.96Zm-17.55-26.14q0 3.87-2.72 6.6-2.72 2.72-6.6 2.72-3.87 0-6.53-2.72-2.66-2.73-2.66-6.6t2.66-6.59q2.66-2.73 6.53-2.73 3.88 0 6.6 2.73 2.72 2.72 2.72 6.59m70.54 29.65q-2.42 0-5.14-.79t-3.93-2.96q-2.78-9.44-5.81-19.36-3.02-9.93-6.05-19.49-3.39-11.25-7.26-23.41t-7.26-23.29q-.73-2.66.85-4.66 1.57-2 4.47-2.96 1.82-.49 3.15-.49 4.11 0 5.32 4.12l8.96 28.67q1.21 4.36 2.84 9.56 1.64 5.2 3.33 10.65 1.69 5.44 3.39 10.83 1.69 5.38 3.14 9.98 2.3-7.62 5.03-16.52 2.72-8.89 5.56-18.08 2.84-9.2 5.63-18.22 2.78-9.01 5.2-16.87 1.33-4.12 5.2-4.12 1.46 0 3.39.49 6.66 1.81 5.2 7.62-6.53 21.17-13.18 42.71-6.66 21.54-13.19 42.84-.97 2.42-3.57 3.08-2.6.67-5.27.67m105.15-3.51-26.62-81.31-26.5 81.31v-.12q-.72 1.81-1.99 2.96t-3.09 1.15q-.97 0-1.87-.18-.91-.18-1.88-.42h.12q-6.9-2.18-5.08-7.75l27.59-83.85q.6-1.94 2.12-3.27 1.51-1.33 3.56-1.57 2.06-.36 4-.55 1.93-.18 3.02-.18t3.03.18q1.93.19 3.99.43 1.69.24 3.33 1.81 1.63 1.58 2.48 3.15 6.77 20.81 13.73 41.92 6.96 21.12 13.74 41.93 1.69 5.57-5.09 7.75-.96.24-1.75.42t-1.76.18q-1.69 0-3.08-1.15t-2-2.96Zm-17.54-26.14q0 3.87-2.72 6.6-2.73 2.72-6.6 2.72t-6.53-2.72q-2.67-2.73-2.67-6.6t2.67-6.59q2.66-2.73 6.53-2.73t6.6 2.73q2.72 2.72 2.72 6.59m87.95-61.83v71.51q0 9.8-6.53 14.64-3.15 2.3-6.47 3.57-3.33 1.27-6.48 1.27h-11.61q-3.15 0-6.48-1.27-3.32-1.27-6.47-3.57-6.41-4.72-6.41-14.64v-7.98q0-5.69 7.02-5.69 7.26 0 7.26 5.69v7.01q0 3.15 1.81 5.69 1.82 2.54 6.29 2.54h5.57q4.48 0 6.29-2.54 1.82-2.54 1.82-5.69v-70.54q0-5.81 7.13-5.81 7.26 0 7.26 5.81m77.94 87.97-26.62-81.31-26.5 81.31v-.12q-.73 1.81-2 2.96t-3.08 1.15q-.97 0-1.88-.18t-1.87-.42h.12q-6.9-2.18-5.08-7.75l27.58-83.85q.61-1.94 2.12-3.27t3.57-1.57q2.06-.36 3.99-.55 1.94-.18 3.03-.18t3.02.18q1.94.19 4 .43 1.69.24 3.32 1.81 1.64 1.58 2.48 3.15 6.78 20.81 13.74 41.92 6.96 21.12 13.73 41.93 1.7 5.57-5.08 7.75-.97.24-1.75.42-.79.18-1.76.18-1.69 0-3.08-1.15-1.4-1.15-2-2.96Zm-17.55-26.14q0 3.87-2.72 6.6-2.72 2.72-6.59 2.72-3.88 0-6.54-2.72-2.66-2.73-2.66-6.6t2.66-6.59q2.66-2.73 6.54-2.73 3.87 0 6.59 2.73 2.72 2.72 2.72 6.59m116.28-67.64q3.88 0 8.47 1.82 4.24 1.69 4.24 6.41v83.37q0 5.81-7.14 5.81t-7.14-5.81v-62.19l-3.51-.37-4.84 15.73-14.52 48.4q-1.33 4.24-6.53 4.12-2.3-.12-3.99-1.21-1.7-1.09-2.3-3.15l-8.72-28.19q-2.66-8.35-5.32-17t-5.81-19.18l-3.51.48v62.56q0 5.81-7.14 5.81-7.13 0-7.13-5.81V724.8q0-4.6 4.23-6.41 4.48-1.82 8.59-1.7 1.82 0 3.75.49 1.94.48 3.63 1.39 1.7.91 3.03 2.3t2.05 3.2l19 64.74q2.06-7.14 4.36-15.49t4.72-16.94 4.78-17 4.41-15.67q.73-1.69 2.06-3.02t3.02-2.24q1.7-.91 3.57-1.39 1.88-.49 3.69-.49"/></g><path fill="transparent" stroke="transparent" stroke-width="2.679" d="M250 566.518h1500v366.964H250z"/></g></svg>