<svg xmlns="http://www.w3.org/2000/svg" xmlns:xlink="http://www.w3.org/1999/xlink" version="1.1" width="2000" height="137" viewBox="0 0 2000 137" xml:space="preserve" data-version="1" data-id="lg_blgmnK4kPX6eMigHqs"><defs></defs><g id="outer-wrapper" data-padding="20" transform="matrix(1,0,0,1,0,0)"><g id="inner-wrapper" transform="matrix(0.9642857142857143,0,0,0.9642857142857143,10,2.4464285714285694)"><g transform="matrix(1 0 0 1 400.5 400.35)"><g style=""><g transform="matrix(1 0 0 1 0 0)"><rect x="346.1666666666665" y="-400.21500000000003" rx="0" ry="0" width="560.0000000000001" height="136.73" stroke="rgb(255,255,255)" stroke-opacity="0" stroke-width="1" stroke-dasharray="none" stroke-linecap="butt" stroke-dashoffset="0" stroke-linejoin="miter" stroke-miterlimit="4" fill="rgb(255,255,255)" fill-opacity="0" fill-rule="nonzero" opacity="1"></rect></g><g transform="matrix(1 0 0 1 -248.9 -10.27)"><path transform=" translate(-151.6, -390.08)" d="M802.9966666666666 15.63999999999993L802.9966666666666 87.14999999999992Q802.9966666666666 96.94999999999993 796.4666666666666 101.7899999999999L796.4666666666666 101.7899999999999Q793.3166666666666 104.08999999999992 789.9866666666666 105.3599999999999Q786.6666666666665 106.62999999999994 783.5166666666665 106.62999999999994L783.5166666666665 106.62999999999994L771.8966666666665 106.62999999999994Q768.7566666666665 106.62999999999994 765.4266666666665 105.3599999999999Q762.0966666666666 104.08999999999992 758.9566666666665 101.7899999999999L758.9566666666665 101.7899999999999Q752.5366666666665 97.06999999999994 752.5366666666665 87.14999999999992L752.5366666666665 87.14999999999992L752.5366666666665 79.1699999999999Q752.5366666666665 73.4799999999999 759.5566666666665 73.4799999999999L759.5566666666665 73.4799999999999Q766.8166666666666 73.4799999999999 766.8166666666666 79.1699999999999L766.8166666666666 79.1699999999999L766.8166666666666 86.1799999999999Q766.8166666666666 89.32999999999993 768.6366666666665 91.86999999999995Q770.4466666666665 94.40999999999991 774.9266666666665 94.40999999999991L774.9266666666665 94.40999999999991L780.4966666666666 94.40999999999991Q784.9666666666666 94.40999999999991 786.7866666666665 91.86999999999995Q788.5966666666666 89.32999999999993 788.5966666666666 86.1799999999999L788.5966666666666 86.1799999999999L788.5966666666666 15.63999999999993Q788.5966666666666 9.829999999999927 795.7366666666666 9.829999999999927L795.7366666666666 9.829999999999927Q802.9966666666666 9.829999999999927 802.9966666666666 15.63999999999993L802.9966666666666 15.63999999999993Z " stroke-linecap="butt" stroke="none" stroke-width="1" stroke-dasharray="none" stroke-dashoffset="0" stroke-linejoin="miter" stroke-miterlimit="4" fill="rgb(17,17,17)" fill-rule="nonzero" opacity="1"></path></g><g transform="matrix(1 0 0 1 -172.41 -9.79)"><path transform=" translate(-228.09, -390.56)" d="M880.9266666666665 103.6099999999999L854.3066666666665 22.299999999999898L827.8066666666665 103.6099999999999L827.8066666666665 103.4899999999999Q827.0766666666666 105.2999999999999 825.8066666666665 106.44999999999993Q824.5366666666665 107.59999999999991 822.7166666666666 107.59999999999991L822.7166666666666 107.59999999999991Q821.7566666666665 107.59999999999991 820.8466666666666 107.4199999999999Q819.9366666666665 107.2399999999999 818.9666666666666 106.99999999999994L818.9666666666666 106.99999999999994L819.0866666666666 106.99999999999994Q812.1966666666665 104.81999999999994 814.0066666666665 99.24999999999994L814.0066666666665 99.24999999999994L841.5966666666666 15.39999999999992Q842.2066666666665 13.459999999999923 843.7166666666666 12.129999999999939Q845.2266666666666 10.799999999999898 847.2866666666665 10.559999999999945L847.2866666666665 10.559999999999945Q849.3366666666666 10.199999999999932 851.2766666666665 10.009999999999934Q853.2166666666666 9.829999999999927 854.3066666666665 9.829999999999927L854.3066666666665 9.829999999999927Q855.3866666666665 9.829999999999927 857.3266666666666 10.009999999999934Q859.2666666666665 10.199999999999932 861.3166666666666 10.43999999999994L861.3166666666666 10.43999999999994Q863.0166666666665 10.679999999999893 864.6466666666665 12.249999999999943Q866.2766666666665 13.829999999999927 867.1266666666666 15.39999999999992L867.1266666666666 15.39999999999992Q873.9066666666665 36.20999999999992 880.8666666666666 57.319999999999936Q887.8166666666665 78.43999999999994 894.5966666666666 99.24999999999994L894.5966666666666 99.24999999999994Q896.2866666666665 104.81999999999994 889.5166666666665 106.99999999999994L889.5166666666665 106.99999999999994Q888.5466666666665 107.2399999999999 887.7566666666665 107.4199999999999Q886.9766666666666 107.59999999999991 886.0066666666665 107.59999999999991L886.0066666666665 107.59999999999991Q884.3066666666665 107.59999999999991 882.9166666666665 106.44999999999993Q881.5266666666665 105.2999999999999 880.9266666666665 103.4899999999999L880.9266666666665 103.4899999999999L880.9266666666665 103.6099999999999ZM863.3766666666666 77.46999999999991L863.3766666666666 77.46999999999991Q863.3766666666666 81.33999999999992 860.6566666666665 84.06999999999994Q857.9366666666665 86.7899999999999 854.0566666666665 86.7899999999999L854.0566666666665 86.7899999999999Q850.1866666666665 86.7899999999999 847.5266666666665 84.06999999999994Q844.8666666666666 81.33999999999992 844.8666666666666 77.46999999999991L844.8666666666666 77.46999999999991Q844.8666666666666 73.59999999999991 847.5266666666665 70.87999999999994Q850.1866666666665 68.14999999999992 854.0566666666665 68.14999999999992L854.0566666666665 68.14999999999992Q857.9366666666665 68.14999999999992 860.6566666666665 70.87999999999994Q863.3766666666666 73.59999999999991 863.3766666666666 77.46999999999991Z " stroke-linecap="butt" stroke="none" stroke-width="1" stroke-dasharray="none" stroke-dashoffset="0" stroke-linejoin="miter" stroke-miterlimit="4" fill="rgb(17,17,17)" fill-rule="nonzero" opacity="1"></path></g><g transform="matrix(1 0 0 1 -92.71 -10.09)"><path transform=" translate(-307.79, -390.26)" d="M933.9166666666665 107.12L933.9166666666665 107.12Q931.4966666666666 107.12 928.7766666666666 106.32999999999998Q926.0566666666666 105.53999999999996 924.8466666666666 103.37L924.8466666666666 103.37Q922.0666666666666 93.92999999999995 919.0366666666666 84.00999999999999Q916.0166666666667 74.07999999999998 912.9866666666666 64.51999999999998L912.9866666666666 64.51999999999998Q909.5966666666666 53.26999999999998 905.7266666666666 41.10999999999996Q901.8566666666666 28.94999999999999 898.4666666666666 17.819999999999993L898.4666666666666 17.819999999999993Q897.7366666666666 15.159999999999968 899.3166666666666 13.159999999999968Q900.8866666666665 11.159999999999968 903.7866666666666 10.199999999999989L903.7866666666666 10.199999999999989Q905.6066666666666 9.70999999999998 906.9366666666665 9.70999999999998L906.9366666666665 9.70999999999998Q911.0466666666666 9.70999999999998 912.2566666666665 13.829999999999984L912.2566666666665 13.829999999999984L921.2166666666666 42.5Q922.4266666666665 46.85999999999996 924.0566666666666 52.06Q925.6966666666665 57.25999999999999 927.3866666666665 62.70999999999998Q929.0766666666666 68.14999999999998 930.7766666666666 73.53999999999996Q932.4666666666666 78.91999999999996 933.9166666666665 83.51999999999998L933.9166666666665 83.51999999999998Q936.2166666666666 75.89999999999998 938.9466666666665 67Q941.6666666666665 58.10999999999996 944.5066666666665 48.91999999999996Q947.3466666666666 39.71999999999997 950.1366666666665 30.69999999999999Q952.9166666666665 21.689999999999998 955.3366666666666 13.829999999999984L955.3366666666666 13.829999999999984Q956.6666666666665 9.70999999999998 960.5366666666666 9.70999999999998L960.5366666666666 9.70999999999998Q961.9966666666666 9.70999999999998 963.9266666666665 10.199999999999989L963.9266666666665 10.199999999999989Q970.5866666666666 12.009999999999991 969.1266666666666 17.819999999999993L969.1266666666666 17.819999999999993Q962.5966666666666 38.98999999999995 955.9466666666665 60.52999999999997Q949.2866666666666 82.07 942.7566666666665 103.37L942.7566666666665 103.37Q941.7866666666666 105.78999999999996 939.1866666666665 106.44999999999999Q936.5866666666666 107.12 933.9166666666665 107.12Z " stroke-linecap="butt" stroke="none" stroke-width="1" stroke-dasharray="none" stroke-dashoffset="0" stroke-linejoin="miter" stroke-miterlimit="4" fill="rgb(17,17,17)" fill-rule="nonzero" opacity="1"></path></g><g transform="matrix(1 0 0 1 -14.26 -9.79)"><path transform=" translate(-386.24, -390.56)" d="M1039.0666666666666 103.6099999999999L1012.4466666666665 22.299999999999898L985.9466666666665 103.6099999999999L985.9466666666665 103.4899999999999Q985.2266666666666 105.2999999999999 983.9566666666666 106.44999999999993Q982.6866666666665 107.59999999999991 980.8666666666666 107.59999999999991L980.8666666666666 107.59999999999991Q979.8966666666665 107.59999999999991 978.9966666666666 107.4199999999999Q978.0866666666666 107.2399999999999 977.1166666666666 106.99999999999994L977.1166666666666 106.99999999999994L977.2366666666666 106.99999999999994Q970.3366666666666 104.81999999999994 972.1566666666665 99.24999999999994L972.1566666666665 99.24999999999994L999.7466666666666 15.39999999999992Q1000.3466666666666 13.459999999999923 1001.8666666666666 12.129999999999939Q1003.3766666666666 10.799999999999898 1005.4266666666665 10.559999999999945L1005.4266666666665 10.559999999999945Q1007.4866666666666 10.199999999999932 1009.4266666666665 10.009999999999934Q1011.3566666666666 9.829999999999927 1012.4466666666665 9.829999999999927L1012.4466666666665 9.829999999999927Q1013.5366666666666 9.829999999999927 1015.4766666666666 10.009999999999934Q1017.4066666666665 10.199999999999932 1019.4666666666666 10.43999999999994L1019.4666666666666 10.43999999999994Q1021.1566666666665 10.679999999999893 1022.7966666666666 12.249999999999943Q1024.4266666666665 13.829999999999927 1025.2766666666666 15.39999999999992L1025.2766666666666 15.39999999999992Q1032.0466666666666 36.20999999999992 1039.0066666666667 57.319999999999936Q1045.9666666666667 78.43999999999994 1052.7466666666664 99.24999999999994L1052.7466666666664 99.24999999999994Q1054.4366666666665 104.81999999999994 1047.6566666666665 106.99999999999994L1047.6566666666665 106.99999999999994Q1046.6966666666665 107.2399999999999 1045.9066666666665 107.4199999999999Q1045.1166666666666 107.59999999999991 1044.1466666666665 107.59999999999991L1044.1466666666665 107.59999999999991Q1042.4566666666665 107.59999999999991 1041.0666666666666 106.44999999999993Q1039.6766666666665 105.2999999999999 1039.0666666666666 103.4899999999999L1039.0666666666666 103.4899999999999L1039.0666666666666 103.6099999999999ZM1021.5266666666666 77.46999999999991L1021.5266666666666 77.46999999999991Q1021.5266666666666 81.33999999999992 1018.8066666666666 84.06999999999994Q1016.0766666666666 86.7899999999999 1012.2066666666666 86.7899999999999L1012.2066666666666 86.7899999999999Q1008.3366666666666 86.7899999999999 1005.6766666666665 84.06999999999994Q1003.0066666666665 81.33999999999992 1003.0066666666665 77.46999999999991L1003.0066666666665 77.46999999999991Q1003.0066666666665 73.59999999999991 1005.6766666666665 70.87999999999994Q1008.3366666666666 68.14999999999992 1012.2066666666666 68.14999999999992L1012.2066666666666 68.14999999999992Q1016.0766666666666 68.14999999999992 1018.8066666666666 70.87999999999994Q1021.5266666666666 73.59999999999991 1021.5266666666666 77.46999999999991Z " stroke-linecap="butt" stroke="none" stroke-width="1" stroke-dasharray="none" stroke-dashoffset="0" stroke-linejoin="miter" stroke-miterlimit="4" fill="rgb(17,17,17)" fill-rule="nonzero" opacity="1"></path></g><g transform="matrix(1 0 0 1 57.59 -10.27)"><path transform=" translate(-458.1, -390.08)" d="M1109.4866666666667 15.63999999999993L1109.4866666666667 87.14999999999992Q1109.4866666666667 96.94999999999993 1102.9566666666667 101.7899999999999L1102.9566666666667 101.7899999999999Q1099.8066666666666 104.08999999999992 1096.4866666666667 105.3599999999999Q1093.1566666666668 106.62999999999994 1090.0066666666667 106.62999999999994L1090.0066666666667 106.62999999999994L1078.3966666666665 106.62999999999994Q1075.2466666666667 106.62999999999994 1071.9166666666665 105.3599999999999Q1068.5966666666666 104.08999999999992 1065.4466666666667 101.7899999999999L1065.4466666666667 101.7899999999999Q1059.0366666666666 97.06999999999994 1059.0366666666666 87.14999999999992L1059.0366666666666 87.14999999999992L1059.0366666666666 79.1699999999999Q1059.0366666666666 73.4799999999999 1066.0566666666666 73.4799999999999L1066.0566666666666 73.4799999999999Q1073.3166666666666 73.4799999999999 1073.3166666666666 79.1699999999999L1073.3166666666666 79.1699999999999L1073.3166666666666 86.1799999999999Q1073.3166666666666 89.32999999999993 1075.1266666666666 91.86999999999995Q1076.9466666666667 94.40999999999991 1081.4166666666665 94.40999999999991L1081.4166666666665 94.40999999999991L1086.9866666666667 94.40999999999991Q1091.4666666666667 94.40999999999991 1093.2766666666666 91.86999999999995Q1095.0966666666666 89.32999999999993 1095.0966666666666 86.1799999999999L1095.0966666666666 86.1799999999999L1095.0966666666666 15.63999999999993Q1095.0966666666666 9.829999999999927 1102.2266666666667 9.829999999999927L1102.2266666666667 9.829999999999927Q1109.4866666666667 9.829999999999927 1109.4866666666667 15.63999999999993L1109.4866666666667 15.63999999999993Z " stroke-linecap="butt" stroke="none" stroke-width="1" stroke-dasharray="none" stroke-dashoffset="0" stroke-linejoin="miter" stroke-miterlimit="4" fill="rgb(17,17,17)" fill-rule="nonzero" opacity="1"></path></g><g transform="matrix(1 0 0 1 134.09 -9.79)"><path transform=" translate(-534.59, -390.56)" d="M1187.4166666666665 103.6099999999999L1160.7966666666666 22.299999999999898L1134.2966666666666 103.6099999999999L1134.2966666666666 103.4899999999999Q1133.5666666666666 105.2999999999999 1132.2966666666666 106.44999999999993Q1131.0266666666666 107.59999999999991 1129.2166666666667 107.59999999999991L1129.2166666666667 107.59999999999991Q1128.2466666666667 107.59999999999991 1127.3366666666666 107.4199999999999Q1126.4266666666667 107.2399999999999 1125.4666666666667 106.99999999999994L1125.4666666666667 106.99999999999994L1125.5866666666666 106.99999999999994Q1118.6866666666665 104.81999999999994 1120.5066666666667 99.24999999999994L1120.5066666666667 99.24999999999994L1148.0866666666666 15.39999999999992Q1148.6966666666667 13.459999999999923 1150.2066666666665 12.129999999999939Q1151.7166666666667 10.799999999999898 1153.7766666666666 10.559999999999945L1153.7766666666666 10.559999999999945Q1155.8366666666666 10.199999999999932 1157.7666666666667 10.009999999999934Q1159.7066666666665 9.829999999999927 1160.7966666666666 9.829999999999927L1160.7966666666666 9.829999999999927Q1161.8866666666668 9.829999999999927 1163.8166666666666 10.009999999999934Q1165.7566666666667 10.199999999999932 1167.8166666666666 10.43999999999994L1167.8166666666666 10.43999999999994Q1169.5066666666667 10.679999999999893 1171.1366666666668 12.249999999999943Q1172.7766666666666 13.829999999999927 1173.6166666666668 15.39999999999992L1173.6166666666668 15.39999999999992Q1180.3966666666665 36.20999999999992 1187.3566666666666 57.319999999999936Q1194.3166666666666 78.43999999999994 1201.0866666666666 99.24999999999994L1201.0866666666666 99.24999999999994Q1202.7866666666666 104.81999999999994 1196.0066666666667 106.99999999999994L1196.0066666666667 106.99999999999994Q1195.0366666666666 107.2399999999999 1194.2566666666667 107.4199999999999Q1193.4666666666667 107.59999999999991 1192.4966666666667 107.59999999999991L1192.4966666666667 107.59999999999991Q1190.8066666666666 107.59999999999991 1189.4166666666665 106.44999999999993Q1188.0166666666667 105.2999999999999 1187.4166666666665 103.4899999999999L1187.4166666666665 103.4899999999999L1187.4166666666665 103.6099999999999ZM1169.8666666666668 77.46999999999991L1169.8666666666668 77.46999999999991Q1169.8666666666668 81.33999999999992 1167.1466666666665 84.06999999999994Q1164.4266666666667 86.7899999999999 1160.5566666666666 86.7899999999999L1160.5566666666666 86.7899999999999Q1156.6766666666667 86.7899999999999 1154.0166666666667 84.06999999999994Q1151.3566666666666 81.33999999999992 1151.3566666666666 77.46999999999991L1151.3566666666666 77.46999999999991Q1151.3566666666666 73.59999999999991 1154.0166666666667 70.87999999999994Q1156.6766666666667 68.14999999999992 1160.5566666666666 68.14999999999992L1160.5566666666666 68.14999999999992Q1164.4266666666667 68.14999999999992 1167.1466666666665 70.87999999999994Q1169.8666666666668 73.59999999999991 1169.8666666666668 77.46999999999991Z " stroke-linecap="butt" stroke="none" stroke-width="1" stroke-dasharray="none" stroke-dashoffset="0" stroke-linejoin="miter" stroke-miterlimit="4" fill="rgb(17,17,17)" fill-rule="nonzero" opacity="1"></path></g><g transform="matrix(1 0 0 1 228.39 -9.97)"><path transform=" translate(-628.89, -390.38)" d="M1286.1466666666665 9.829999999999984L1286.1466666666665 9.829999999999984Q1290.0266666666666 9.829999999999984 1294.6166666666668 11.649999999999977L1294.6166666666668 11.649999999999977Q1298.8566666666666 13.339999999999975 1298.8566666666666 18.060000000000002L1298.8566666666666 18.060000000000002L1298.8566666666666 101.42999999999995Q1298.8566666666666 107.23999999999995 1291.7166666666667 107.23999999999995L1291.7166666666667 107.23999999999995Q1284.5766666666666 107.23999999999995 1284.5766666666666 101.42999999999995L1284.5766666666666 101.42999999999995L1284.5766666666666 39.23999999999995L1281.0666666666666 38.870000000000005L1276.2266666666665 54.599999999999966L1261.7066666666665 103Q1260.3766666666666 107.23999999999995 1255.1766666666667 107.12L1255.1766666666667 107.12Q1252.8766666666666 107 1251.1866666666665 105.90999999999997Q1249.4866666666667 104.82 1248.8866666666668 102.75999999999999L1248.8866666666668 102.75999999999999L1240.1666666666665 74.57Q1237.5066666666667 66.21999999999997 1234.8466666666666 57.56999999999999Q1232.1866666666665 48.91999999999996 1229.0366666666666 38.389999999999986L1229.0366666666666 38.389999999999986L1225.5266666666666 38.870000000000005L1225.5266666666666 101.42999999999995Q1225.5266666666666 107.23999999999995 1218.3866666666668 107.23999999999995L1218.3866666666668 107.23999999999995Q1211.2566666666667 107.23999999999995 1211.2566666666667 101.42999999999995L1211.2566666666667 101.42999999999995L1211.2566666666667 18.060000000000002Q1211.2566666666667 13.45999999999998 1215.4866666666667 11.649999999999977L1215.4866666666667 11.649999999999977Q1219.9666666666667 9.829999999999984 1224.0766666666666 9.949999999999989L1224.0766666666666 9.949999999999989Q1225.8966666666665 9.949999999999989 1227.8266666666666 10.439999999999998Q1229.7666666666667 10.919999999999959 1231.4566666666665 11.829999999999984Q1233.1566666666668 12.739999999999952 1234.4866666666667 14.129999999999995Q1235.8166666666666 15.519999999999982 1236.5366666666666 17.329999999999984L1236.5366666666666 17.329999999999984L1255.5366666666666 82.07Q1257.5966666666666 74.92999999999995 1259.8966666666665 66.57999999999998Q1262.1966666666667 58.22999999999996 1264.6166666666668 49.639999999999986Q1267.0366666666666 41.049999999999955 1269.3966666666665 32.639999999999986Q1271.7566666666667 24.22999999999996 1273.8066666666666 16.96999999999997L1273.8066666666666 16.96999999999997Q1274.5366666666666 15.279999999999973 1275.8666666666668 13.949999999999989Q1277.1966666666667 12.620000000000005 1278.8866666666668 11.70999999999998Q1280.5866666666666 10.799999999999955 1282.4566666666665 10.319999999999993Q1284.3366666666666 9.829999999999984 1286.1466666666665 9.829999999999984Z " stroke-linecap="butt" stroke="none" stroke-width="1" stroke-dasharray="none" stroke-dashoffset="0" stroke-linejoin="miter" stroke-miterlimit="4" fill="rgb(17,17,17)" fill-rule="nonzero" opacity="1"></path></g></g></g></g><rect width="560" height="137" x="720" y="0" id="space-saver" fill="transparent" stroke="transparent"></rect></g></svg>